# xmcd
#
# Track frame offsets: 
#        150
#        23646
#        45165
#        71079
#        86659
#        107179
#        128772
#        157929
#        181756
#        217716
#        253131
#        275679
#        296275
#        322765
#
# Disc length: 4751 seconds
#
# Revision: 0
# Processed by: cddbd v1.5.2PL0 Copyright (c) Steve Scherf et al.
# Submitted via: ExactAudioCopyFreeDBPlugin 1.0
#
DISCID=b4128d0e
DTITLE=Various Artist - Blues ze Staré Pekárny 3
DYEAR=2006
DGENRE=Blues
TTITLE0=Jugging Stones - All Is Over Now
TTITLE1=Jugging Stones - Miss You
TTITLE2=Marty Hall - Tobacco Road
TTITLE3=Butch Coulter - Moondance In Tajikistan
TTITLE4=Pepa Streichl - Tlusté blues
TTITLE5=Dura - Nie sme zbláznení
TTITLE6=Dura - Pušný prach
TTITLE7=Dura - Zdá sa mi
TTITLE8=Sugar Blue - Gucci Gucci Man
TTITLE9=Sugar Blue - Get Your Hand Out Of My Pocked
TTITLE10=Ivan Hajniš - Dear John
TTITLE11=Ivan Hajniš - Gambler Woman
TTITLE12=Ivan Hajniš - Why Me
TTITLE13=Prokop - Dobrú noc má milá
EXTD=
EXTT0=
EXTT1=
EXTT2=
EXTT3=
EXTT4=
EXTT5=
EXTT6=
EXTT7=
EXTT8=
EXTT9=
EXTT10=
EXTT11=
EXTT12=
EXTT13=
PLAYORDER=
